<svg width="192" height="194" viewBox="0 0 192 194" fill="none" xmlns="http://www.w3.org/2000/svg">
<path d="M95.5 185C143.825 185 183 145.825 183 97.5C183 49.1751 143.825 10 95.5 10C47.1751 10 8 49.1751 8 97.5C8 145.825 47.1751 185 95.5 185Z" stroke="black" stroke-width="5" stroke-linecap="round" stroke-linejoin="round"/>
<path d="M126.305 89.0834H64.7371C58.5088 89.0834 53.4587 83.9914 53.4587 77.8051V66.7372C53.4587 60.5088 58.5509 55.4588 64.7371 55.4588H126.305C132.533 55.4588 137.583 60.5509 137.583 66.7372V77.8051C137.583 83.9914 132.491 89.0834 126.305 89.0834Z" stroke="#3A3A3A" stroke-width="5" stroke-linecap="round" stroke-linejoin="round"/>
<path d="M126.305 139.583H64.7371C58.5088 139.583 53.4587 134.491 53.4587 128.305V117.237C53.4587 111.009 58.5509 105.959 64.7371 105.959H126.305C132.533 105.959 137.583 111.051 137.583 117.237V128.305C137.583 134.491 132.491 139.583 126.305 139.583Z" stroke="#3A3A3A" stroke-width="5" stroke-linecap="round" stroke-linejoin="round"/>
<path d="M70.25 68.0417V76.4583" stroke="#3A3A3A" stroke-width="5" stroke-linecap="round" stroke-linejoin="round"/>
<path d="M87.0833 68.0417V76.4583" stroke="#3A3A3A" stroke-width="5" stroke-linecap="round" stroke-linejoin="round"/>
<path d="M70.25 118.542V126.958" stroke="#3A3A3A" stroke-width="5" stroke-linecap="round" stroke-linejoin="round"/>
<path d="M87.0833 118.542V126.958" stroke="#3A3A3A" stroke-width="5" stroke-linecap="round" stroke-linejoin="round"/>
<path d="M103.917 72.25H120.75" stroke="#3A3A3A" stroke-width="5" stroke-linecap="round" stroke-linejoin="round"/>
<path d="M103.917 122.75H120.75" stroke="#3A3A3A" stroke-width="5" stroke-linecap="round" stroke-linejoin="round"/>
</svg>
